<?xml version="1.0" encoding="utf-8"?>
<!-- Generator: Adobe Illustrator 15.1.0, SVG Export Plug-In . SVG Version: 6.00 Build 0)  -->
<!DOCTYPE svg PUBLIC "-//W3C//DTD SVG 1.1//EN" "http://www.w3.org/Graphics/SVG/1.1/DTD/svg11.dtd">
<svg version="1.1" xmlns="http://www.w3.org/2000/svg" xmlns:xlink="http://www.w3.org/1999/xlink" x="0px" y="0px" width="32px"
	 height="32px" viewBox="0 0 32 32" enable-background="new 0 0 32 32" xml:space="preserve">
<g id="Layer_2" display="none">
	<g display="inline">
		<polygon fill="#FFFFFF" points="13.957,25.609 14.54,18.609 17.459,18.609 18.044,25.609 		"/>
		<path fill="#231F20" d="M16.999,19.109l0.501,6h-3l0.5-6H16.999 M17.919,18.109h-0.92h-2h-0.92l-0.076,0.918l-0.5,6l-0.09,1.082
			H14.5h3h1.087l-0.091-1.082l-0.501-6L17.919,18.109L17.919,18.109z"/>
	</g>
	<g display="inline">
		<circle fill="#FFFFFF" cx="16" cy="19.11" r="2.5"/>
		<path fill="#231F20" d="M16,17.109c1.104,0,2,0.896,2,2c0,1.104-0.896,2-2,2s-2-0.896-2-2C14,18.005,14.896,17.109,16,17.109
			 M16,16.11c-1.654,0-3,1.345-3,3s1.346,3,3,3s3-1.346,3-3S17.654,16.11,16,16.11L16,16.11z"/>
	</g>
</g>
<g id="Layer_1" display="none">
	<path display="inline" fill="#FFFFFF" stroke="#231F20" stroke-width="2" stroke-miterlimit="10" d="M10,13.109V8.891
		c0-3.313,2.687-6,6-6c3.313,0,6,2.687,6,6v4.219"/>
	<g display="inline">
		<path fill="#FFFFFF" d="M25,28.109c0,0.55-0.45,1-1,1H8c-0.55,0-1-0.45-1-1v-14c0-0.55,0.45-1,1-1h16c0.55,0,1,0.45,1,1V28.109z"
			/>
		<path fill="none" stroke="#231F20" stroke-miterlimit="10" d="M25,28.109c0,0.55-0.45,1-1,1H8c-0.55,0-1-0.45-1-1v-14
			c0-0.55,0.45-1,1-1h16c0.55,0,1,0.45,1,1V28.109z"/>
	</g>
	<g display="inline">
		<path fill="#FFFFFF" d="M13.957,25.609l0.386-4.632c-0.532-0.472-0.842-1.151-0.842-1.868c0-1.379,1.122-2.5,2.5-2.5
			c1.379,0,2.5,1.121,2.5,2.5c0,0.718-0.311,1.396-0.843,1.869l0.386,4.631H13.957z"/>
		<path fill="#231F20" d="M16,17.109c1.104,0,2,0.896,2,2c0,0.682-0.343,1.282-0.863,1.644l0.363,4.356h-3l0.363-4.357
			C14.342,20.391,14,19.79,14,19.109C14,18.005,14.896,17.109,16,17.109 M16,16.109c-1.654,0-3,1.346-3,3
			c0,0.773,0.3,1.51,0.824,2.063l-0.321,3.854l-0.09,1.083H14.5h3h1.087l-0.091-1.083l-0.321-3.854
			C18.699,20.62,19,19.884,19,19.109C19,17.455,17.654,16.109,16,16.109L16,16.109z"/>
	</g>
</g>
<g id="Layer_1_copy">
	<path fill="#FFFFFF" stroke="#231F20" stroke-width="2" stroke-miterlimit="10" d="M10,13.109V8.891c0-3.313,2.687-6,6-6
		c3.313,0,6,2.687,6,6v4.219"/>
	<path fill="#FFFFFF" stroke="#231F20" stroke-miterlimit="10" d="M24,13.11H8c-0.55,0-1,0.45-1,1v14c0,0.55,0.45,1,1,1h16
		c0.55,0,1-0.45,1-1v-14C25,13.56,24.55,13.11,24,13.11z M17.5,25.109h-3l0.363-4.357C14.342,20.391,14,19.79,14,19.109
		c0-1.104,0.896-2,2-2s2,0.896,2,2c0,0.682-0.343,1.282-0.863,1.644L17.5,25.109z"/>
</g>
</svg>
