<?xml version="1.0" encoding="utf-8"?>
<!-- Generator: Adobe Illustrator 15.1.0, SVG Export Plug-In . SVG Version: 6.00 Build 0)  -->
<!DOCTYPE svg PUBLIC "-//W3C//DTD SVG 1.1//EN" "http://www.w3.org/Graphics/SVG/1.1/DTD/svg11.dtd">
<svg version="1.1" xmlns="http://www.w3.org/2000/svg" xmlns:xlink="http://www.w3.org/1999/xlink" x="0px" y="0px" width="2048px"
	 height="2048px" viewBox="0 0 2048 2048" enable-background="new 0 0 2048 2048" xml:space="preserve">
<symbol  id="New_Symbol" viewBox="-7 -7 14 14">
	<g>
		<path fill="#020308" d="M3,0c0-1.657-1.344-3-3-3s-3,1.343-3,3s1.344,3,3,3S3,1.657,3,0z"/>
		<g opacity="0.05">
			<path fill="#00FFFF" d="M0,3c1.656,0,3-1.343,3-3S1.656-3,0-3s-3,1.343-3,3S-1.656,3,0,3 M0,7c-3.86,0-7-3.14-7-7s3.14-7,7-7
				s7,3.14,7,7S3.86,7,0,7L0,7z"/>
		</g>
	</g>
	<polygon display="none" fill="none" points="-7,7 7,7 7,-7 -7,-7 	"/>
</symbol>
<g id="Layer_1" display="none">
	<g display="inline">
	</g>
</g>
<g id="Layer_3">
	<rect fill="#020308" width="2048" height="2048"/>
</g>
<g id="Layer_2">
	
		<polyline fill="none" stroke="#00FFFF" stroke-width="4" stroke-linejoin="round" stroke-miterlimit="10" stroke-opacity="0.05" points="
		0,32 80,32 112,64 304,64 352,112 352,224 	"/>
	
		<polyline fill="none" stroke="#00FFFF" stroke-width="4" stroke-linejoin="round" stroke-miterlimit="10" stroke-opacity="0.05" points="
		16,64 80,64 112,96 304,96 320,112 320,224 320,240 320,272 320,304 304,320 0,320 	"/>
	
		<polyline fill="none" stroke="#00FFFF" stroke-width="4" stroke-linejoin="round" stroke-miterlimit="10" stroke-opacity="0.05" points="
		0,48 80,48 112,80 304,80 336,112 336,272 368,304 512,304 624,416 624,544 864,784 912,784 944,816 944,1024 800,1168 512,1168 
		464,1168 	"/>
	<use xlink:href="#New_Symbol"  width="14" height="14" x="-7" y="-7" transform="matrix(1 0 0 -1 16 16)" overflow="visible"/>
	<use xlink:href="#New_Symbol"  width="14" height="14" x="-7" y="-7" transform="matrix(1 0 0 -1 16 64)" overflow="visible"/>
	
		<polyline fill="none" stroke="#00FFFF" stroke-width="4" stroke-linejoin="round" stroke-miterlimit="10" stroke-opacity="0.05" points="
		928,1024 928,816 912,800 864,800 608,544 608,416 512,320 368,320 352,304 	"/>
	
		<polyline fill="none" stroke="#00FFFF" stroke-width="4" stroke-linejoin="round" stroke-miterlimit="10" stroke-opacity="0.05" points="
		976,976 976,816 912,752 864,752 656,544 656,480 	"/>
	<use xlink:href="#New_Symbol"  width="14" height="14" x="-7" y="-7" transform="matrix(1 0 0 -1 928 1024)" overflow="visible"/>
	<use xlink:href="#New_Symbol"  width="14" height="14" x="-7" y="-7" transform="matrix(1 0 0 -1 976 976)" overflow="visible"/>
	<use xlink:href="#New_Symbol"  width="14" height="14" x="-7" y="-7" transform="matrix(1 0 0 -1 352 224)" overflow="visible"/>
	
		<polyline fill="none" stroke="#00FFFF" stroke-width="4" stroke-linejoin="round" stroke-miterlimit="10" stroke-opacity="0.05" points="
		336,288 336,304 304,336 0,334.5 	"/>
	<use xlink:href="#New_Symbol"  width="14" height="14" x="-7" y="-7" transform="matrix(1 0 0 -1 336 288)" overflow="visible"/>
	
		<line fill="none" stroke="#00FFFF" stroke-width="4" stroke-linejoin="round" stroke-miterlimit="10" stroke-opacity="0.05" x1="384" y1="1168" x2="304" y2="1168"/>
	
		<polyline fill="none" stroke="#00FFFF" stroke-width="4" stroke-linejoin="round" stroke-miterlimit="10" stroke-opacity="0.05" points="
		400,1152 400,1088 400,1040 464,976 576,976 	"/>
	
		<polyline fill="none" stroke="#00FFFF" stroke-width="4" stroke-linejoin="round" stroke-miterlimit="10" stroke-opacity="0.05" points="
		416,1152 416,1088 416,1040 464,992 576,992 	"/>
	
		<polyline fill="none" stroke="#00FFFF" stroke-width="4" stroke-linejoin="round" stroke-miterlimit="10" stroke-opacity="0.05" points="
		432,1152 432,1088 432,1040 464,1008 576,1008 	"/>
	
		<line fill="none" stroke="#00FFFF" stroke-width="4" stroke-linejoin="round" stroke-miterlimit="10" stroke-opacity="0.05" x1="384" y1="1184" x2="304" y2="1184"/>
	
		<line fill="none" stroke="#00FFFF" stroke-width="4" stroke-linejoin="round" stroke-miterlimit="10" stroke-opacity="0.05" x1="384" y1="1200" x2="304" y2="1200"/>
	
		<line fill="none" stroke="#00FFFF" stroke-width="4" stroke-linejoin="round" stroke-miterlimit="10" stroke-opacity="0.05" x1="384" y1="1216" x2="304" y2="1216"/>
	
		<polyline fill="none" stroke="#00FFFF" stroke-width="4" stroke-linejoin="round" stroke-miterlimit="10" stroke-opacity="0.05" points="
		400,1232 400,1248 416,1264 464,1312 480,1312 512,1280 800,1280 992,1088 1712,1088 1920,880 1920,240 	"/>
	
		<polyline fill="none" stroke="#00FFFF" stroke-width="4" stroke-linejoin="round" stroke-miterlimit="10" stroke-opacity="0.05" points="
		416,1232 416,1248 432,1264 464,1296 480,1296 512,1264 800,1264 992,1072 1712,1072 1904,880 1904,240 	"/>
	
		<polyline fill="none" stroke="#00FFFF" stroke-width="4" stroke-linejoin="round" stroke-miterlimit="10" stroke-opacity="0.05" points="
		432,1232 432,1248 448,1264 464,1280 480,1280 512,1248 800,1248 992,1056 1712,1056 1888,880 1888,240 	"/>
	
		<polyline fill="none" stroke="#00FFFF" stroke-width="4" stroke-linejoin="round" stroke-miterlimit="10" stroke-opacity="0.05" points="
		448,1232 448,1248 464,1264 480,1264 512,1232 800,1232 992,1040 1712,1040 1872,880 1872,240 	"/>
	
		<polyline fill="none" stroke="#00FFFF" stroke-width="4" stroke-linejoin="round" stroke-miterlimit="10" stroke-opacity="0.05" points="
		464,1184 512,1184 800,1184 960,1024 960,816 912,768 864,768 640,544 640,416 512,288 368,288 352,272 352,240 368,224 368,112 
		304,48 112,48 80,16 16,16 	"/>
	
		<polyline fill="none" stroke="#00FFFF" stroke-width="4" stroke-linejoin="round" stroke-miterlimit="10" stroke-opacity="0.05" points="
		576,1024 464,1024 448,1040 448,1088 448,1152 	"/>
	
		<polyline fill="none" stroke="#00FFFF" stroke-width="4" stroke-linejoin="round" stroke-miterlimit="10" stroke-opacity="0.05" points="
		1952,96 1952,64 1968,48 2048,48 	"/>
	
		<line fill="none" stroke="#00FFFF" stroke-width="4" stroke-linejoin="round" stroke-miterlimit="10" stroke-opacity="0.05" x1="1920" y1="32" x2="1920" y2="96"/>
	
		<line fill="none" stroke="#00FFFF" stroke-width="4" stroke-linejoin="round" stroke-miterlimit="10" stroke-opacity="0.05" x1="1904" y1="32" x2="1904" y2="96"/>
	
		<line fill="none" stroke="#00FFFF" stroke-width="4" stroke-linejoin="round" stroke-miterlimit="10" stroke-opacity="0.05" x1="1888" y1="96" x2="1888" y2="32"/>
	
		<line fill="none" stroke="#00FFFF" stroke-width="4" stroke-linejoin="round" stroke-miterlimit="10" stroke-opacity="0.05" x1="1872" y1="96" x2="1872" y2="32"/>
	
		<line fill="none" stroke="#00FFFF" stroke-width="4" stroke-linejoin="round" stroke-miterlimit="10" stroke-opacity="0.05" x1="1856" y1="96" x2="1856" y2="32"/>
	
		<line fill="none" stroke="#00FFFF" stroke-width="4" stroke-linejoin="round" stroke-miterlimit="10" stroke-opacity="0.05" x1="1840" y1="96" x2="1840" y2="32"/>
	
		<line fill="none" stroke="#00FFFF" stroke-width="4" stroke-linejoin="round" stroke-miterlimit="10" stroke-opacity="0.05" x1="1824" y1="112" x2="1776" y2="112"/>
	
		<line fill="none" stroke="#00FFFF" stroke-width="4" stroke-linejoin="round" stroke-miterlimit="10" stroke-opacity="0.05" x1="1824" y1="128" x2="1776" y2="128"/>
	
		<line fill="none" stroke="#00FFFF" stroke-width="4" stroke-linejoin="round" stroke-miterlimit="10" stroke-opacity="0.05" x1="1824" y1="144" x2="1776" y2="144"/>
	
		<line fill="none" stroke="#00FFFF" stroke-width="4" stroke-linejoin="round" stroke-miterlimit="10" stroke-opacity="0.05" x1="1824" y1="160" x2="1776" y2="160"/>
	
		<line fill="none" stroke="#00FFFF" stroke-width="4" stroke-linejoin="round" stroke-miterlimit="10" stroke-opacity="0.05" x1="1824" y1="176" x2="1776" y2="176"/>
	
		<line fill="none" stroke="#00FFFF" stroke-width="4" stroke-linejoin="round" stroke-miterlimit="10" stroke-opacity="0.05" x1="1824" y1="192" x2="1776" y2="192"/>
	
		<line fill="none" stroke="#00FFFF" stroke-width="4" stroke-linejoin="round" stroke-miterlimit="10" stroke-opacity="0.05" x1="1824" y1="208" x2="1776" y2="208"/>
	
		<line fill="none" stroke="#00FFFF" stroke-width="4" stroke-linejoin="round" stroke-miterlimit="10" stroke-opacity="0.05" x1="1824" y1="224" x2="1776" y2="224"/>
	
		<polyline fill="none" stroke="#00FFFF" stroke-width="4" stroke-linejoin="round" stroke-miterlimit="10" stroke-opacity="0.05" points="
		1840,240 1840,880 1712,1008 992,1008 800,1200 464,1200 	"/>
	
		<polyline fill="none" stroke="#00FFFF" stroke-width="4" stroke-linejoin="round" stroke-miterlimit="10" stroke-opacity="0.05" points="
		1856,240 1856,880 1712,1024 992,1024 800,1216 464,1216 	"/>
	
		<polyline fill="none" stroke="#00FFFF" stroke-width="4" stroke-linejoin="round" stroke-miterlimit="10" stroke-opacity="0.05" points="
		1936,240 1936,288 1984,336 2048,337 	"/>
	
		<polyline fill="none" stroke="#00FFFF" stroke-width="4" stroke-linejoin="round" stroke-miterlimit="10" stroke-opacity="0.05" points="
		1952,240 1952,288 1984,320 2048,320 	"/>
	
		<line fill="none" stroke="#00FFFF" stroke-width="4" stroke-linejoin="round" stroke-miterlimit="10" stroke-opacity="0.05" x1="1968" y1="112" x2="2032" y2="112"/>
	
		<line fill="none" stroke="#00FFFF" stroke-width="4" stroke-linejoin="round" stroke-miterlimit="10" stroke-opacity="0.05" x1="1968" y1="128" x2="2032" y2="128"/>
	
		<line fill="none" stroke="#00FFFF" stroke-width="4" stroke-linejoin="round" stroke-miterlimit="10" stroke-opacity="0.05" x1="1968" y1="144" x2="2032" y2="144"/>
	
		<line fill="none" stroke="#00FFFF" stroke-width="4" stroke-linejoin="round" stroke-miterlimit="10" stroke-opacity="0.05" x1="1968" y1="160" x2="2032" y2="160"/>
	
		<line fill="none" stroke="#00FFFF" stroke-width="4" stroke-linejoin="round" stroke-miterlimit="10" stroke-opacity="0.05" x1="1968" y1="176" x2="2032" y2="176"/>
	
		<line fill="none" stroke="#00FFFF" stroke-width="4" stroke-linejoin="round" stroke-miterlimit="10" stroke-opacity="0.05" x1="1968" y1="192" x2="2032" y2="192"/>
	
		<line fill="none" stroke="#00FFFF" stroke-width="4" stroke-linejoin="round" stroke-miterlimit="10" stroke-opacity="0.05" x1="1968" y1="208" x2="2032" y2="208"/>
	
		<line fill="none" stroke="#00FFFF" stroke-width="4" stroke-linejoin="round" stroke-miterlimit="10" stroke-opacity="0.05" x1="1968" y1="224" x2="2032" y2="224"/>
	<path fill="none" stroke="#00FFFF" stroke-width="4" stroke-linejoin="round" stroke-miterlimit="10" stroke-opacity="0.05" d="
		M1424,1600"/>
	<path fill="none" stroke="#00FFFF" stroke-width="4" stroke-linejoin="round" stroke-miterlimit="10" stroke-opacity="0.05" d="
		M608,1312"/>
	
		<polyline fill="none" stroke="#00FFFF" stroke-width="4" stroke-linejoin="round" stroke-miterlimit="10" stroke-opacity="0.05" points="
		2048,32.333 1968,32 1936,64 1936,96 	"/>
	<use xlink:href="#New_Symbol"  width="14" height="14" x="-7" y="-7" transform="matrix(1 0 0 -1 352 304)" overflow="visible"/>
	<use xlink:href="#New_Symbol"  width="14" height="14" x="-7" y="-7" transform="matrix(1 0 0 -1 576 976)" overflow="visible"/>
	<use xlink:href="#New_Symbol"  width="14" height="14" x="-7" y="-7" transform="matrix(1 0 0 -1 576 992)" overflow="visible"/>
	<use xlink:href="#New_Symbol"  width="14" height="14" x="-7" y="-7" transform="matrix(1 0 0 -1 576 1008)" overflow="visible"/>
	<use xlink:href="#New_Symbol"  width="14" height="14" x="-7" y="-7" transform="matrix(1 0 0 -1 576 1024)" overflow="visible"/>
</g>
</svg>
