<?xml version="1.0" encoding="utf-8"?>
<!-- Generator: Adobe Illustrator 15.1.0, SVG Export Plug-In . SVG Version: 6.00 Build 0)  -->
<!DOCTYPE svg PUBLIC "-//W3C//DTD SVG 1.1//EN" "http://www.w3.org/Graphics/SVG/1.1/DTD/svg11.dtd">
<svg version="1.1" xmlns="http://www.w3.org/2000/svg" xmlns:xlink="http://www.w3.org/1999/xlink" x="0px" y="0px" width="2048px"
	 height="2048px" viewBox="0 0 2048 2048" enable-background="new 0 0 2048 2048" xml:space="preserve">
<symbol  id="New_Symbol" viewBox="-7 -7 14 14">
	<g>
		<path fill="#020308" d="M0-5c-2.757,0-5,2.243-5,5s2.243,5,5,5s5-2.243,5-5S2.757-5,0-5z"/>
		<path fill="#00FFFF" d="M0,3c1.657,0,3-1.343,3-3S1.657-3,0-3s-3,1.343-3,3S-1.657,3,0,3 M0,7c-3.86,0-7-3.14-7-7s3.14-7,7-7
			s7,3.14,7,7S3.86,7,0,7L0,7z"/>
	</g>
	<polygon display="none" fill="none" points="-7,7 7,7 7,-7 -7,-7 	"/>
</symbol>
<g id="Layer_1" display="none">
	<g display="inline">
	</g>
</g>
<g id="Layer_3">
	<rect fill="#020308" width="2048" height="2048"/>
</g>
<g id="Layer_5" opacity="0.03">
	<g id="Layer_2">
		<polyline fill="none" stroke="#00FFFF" stroke-width="4" stroke-linejoin="round" stroke-miterlimit="10" points="0,32 80,32 
			112,64 304,64 352,112 352,224 		"/>
		<polyline fill="none" stroke="#00FFFF" stroke-width="4" stroke-linejoin="round" stroke-miterlimit="10" points="16,64 80,64 
			112,96 304,96 320,112 320,224 320,240 320,272 320,304 304,320 0,320 		"/>
		<polyline fill="none" stroke="#00FFFF" stroke-width="4" stroke-linejoin="round" stroke-miterlimit="10" points="0,48 80,48 
			112,80 304,80 336,112 336,272 368,304 512,304 624,416 624,544 864,784 912,784 944,816 944,1024 800,1168 512,1168 464,1168 		
			"/>
		<polyline fill="none" stroke="#00FFFF" stroke-width="4" stroke-linejoin="round" stroke-miterlimit="10" points="928,1024 
			928,816 912,800 864,800 608,544 608,416 512,320 368,320 352,304 		"/>
		<polyline fill="none" stroke="#00FFFF" stroke-width="4" stroke-linejoin="round" stroke-miterlimit="10" points="976,1008 
			976,816 912,752 864,752 656,544 656,480 672,464 1056,464 1152,464 1200,416 1232,416 1232,400 1136,400 1136,384 1232,384 
			1232,368 1136,368 1136,352 1232,352 1232,336 1136,336 1136,320 1232,320 1232,304 1136,304 1136,288 1232,288 1232,272 
			1136,272 1136,256 1232,256 1232,240 1136,240 1136,224 1168,224 1184,208 1184,0 		"/>
		<polyline fill="none" stroke="#00FFFF" stroke-width="4" stroke-linejoin="round" stroke-miterlimit="10" points="336,288 
			336,304 304,336 0,334.5 		"/>
		<polyline fill="none" stroke="#00FFFF" stroke-width="4" stroke-linejoin="round" stroke-miterlimit="10" points="400,1152 
			400,1088 400,1040 464,976 576,976 		"/>
		<polyline fill="none" stroke="#00FFFF" stroke-width="4" stroke-linejoin="round" stroke-miterlimit="10" points="416,1152 
			416,1088 416,1040 464,992 576,992 		"/>
		<polyline fill="none" stroke="#00FFFF" stroke-width="4" stroke-linejoin="round" stroke-miterlimit="10" points="432,1152 
			432,1088 432,1040 464,1008 576,1008 		"/>
		
			<line fill="none" stroke="#00FFFF" stroke-width="4" stroke-linejoin="round" stroke-miterlimit="10" x1="384" y1="1184" x2="304" y2="1184"/>
		
			<line fill="none" stroke="#00FFFF" stroke-width="4" stroke-linejoin="round" stroke-miterlimit="10" x1="384" y1="1200" x2="304" y2="1200"/>
		<polyline fill="none" stroke="#00FFFF" stroke-width="4" stroke-linejoin="round" stroke-miterlimit="10" points="384,1216 
			384,1552 432,1600 576,1600 592,1584 608,1584 608,1616 624,1616 624,1584 640,1584 640,1616 656,1616 656,1584 672,1584 
			672,1616 688,1616 688,1584 704,1584 704,1616 720,1616 720,1584 736,1584 736,1600 784,1600 896,1488 1632,1488 1632,1520 		"/>
		<polyline fill="none" stroke="#00FFFF" stroke-width="4" stroke-linejoin="round" stroke-miterlimit="10" points="400,1232 
			400,1248 416,1264 464,1312 480,1312 512,1280 800,1280 992,1088 1712,1088 1920,880 1920,240 		"/>
		<polyline fill="none" stroke="#00FFFF" stroke-width="4" stroke-linejoin="round" stroke-miterlimit="10" points="416,1232 
			416,1248 432,1264 464,1296 480,1296 512,1264 800,1264 992,1072 1712,1072 1904,880 1904,240 		"/>
		<polyline fill="none" stroke="#00FFFF" stroke-width="4" stroke-linejoin="round" stroke-miterlimit="10" points="432,1232 
			432,1248 448,1264 464,1280 480,1280 512,1248 800,1248 992,1056 1712,1056 1888,880 1888,240 		"/>
		<polyline fill="none" stroke="#00FFFF" stroke-width="4" stroke-linejoin="round" stroke-miterlimit="10" points="448,1232 
			448,1248 464,1264 480,1264 512,1232 800,1232 992,1040 1712,1040 1872,880 1872,240 		"/>
		<polyline fill="none" stroke="#00FFFF" stroke-width="4" stroke-linejoin="round" stroke-miterlimit="10" points="464,1184 
			512,1184 800,1184 960,1024 960,816 912,768 864,768 640,544 640,416 512,288 368,288 352,272 352,240 368,224 368,112 304,48 
			112,48 80,16 16,16 		"/>
		<polyline fill="none" stroke="#00FFFF" stroke-width="4" stroke-linejoin="round" stroke-miterlimit="10" points="576,1024 
			464,1024 448,1040 448,1088 448,1152 		"/>
		<polyline fill="none" stroke="#00FFFF" stroke-width="4" stroke-linejoin="round" stroke-miterlimit="10" points="1952,96 
			1952,64 1968,48 2048,48 		"/>
		
			<line fill="none" stroke="#00FFFF" stroke-width="4" stroke-linejoin="round" stroke-miterlimit="10" x1="1920" y1="0" x2="1920" y2="96"/>
		
			<line fill="none" stroke="#00FFFF" stroke-width="4" stroke-linejoin="round" stroke-miterlimit="10" x1="1904" y1="0" x2="1904" y2="96"/>
		
			<line fill="none" stroke="#00FFFF" stroke-width="4" stroke-linejoin="round" stroke-miterlimit="10" x1="1888" y1="96" x2="1888" y2="0"/>
		<polyline fill="none" stroke="#00FFFF" stroke-width="4" stroke-linejoin="round" stroke-miterlimit="10" points="1872,96 
			1840,64 1648,64 1616,32 1616.335,0 		"/>
		<polyline fill="none" stroke="#00FFFF" stroke-width="4" stroke-linejoin="round" stroke-miterlimit="10" points="1856,96 
			1840,80 1648,80 		"/>
		
			<line fill="none" stroke="#00FFFF" stroke-width="4" stroke-linejoin="round" stroke-miterlimit="10" x1="1840" y1="96" x2="1648" y2="96"/>
		<polyline fill="none" stroke="#00FFFF" stroke-width="4" stroke-linejoin="round" stroke-miterlimit="10" points="1824,112 
			1296,112 1280,96 1280,0 		"/>
		<polyline fill="none" stroke="#00FFFF" stroke-width="4" stroke-linejoin="round" stroke-miterlimit="10" points="1824,208 
			1584,208 1504,288 1376,288 1296,208 1200,112 		"/>
		<polyline fill="none" stroke="#00FFFF" stroke-width="4" stroke-linejoin="round" stroke-miterlimit="10" points="1824,224 
			1584,224 1504,304 1376,304 1296,224 1200,128 		"/>
		<polyline fill="none" stroke="#00FFFF" stroke-width="4" stroke-linejoin="round" stroke-miterlimit="10" points="1840,240 
			1840,880 1712,1008 992,1008 800,1200 464,1200 		"/>
		<polyline fill="none" stroke="#00FFFF" stroke-width="4" stroke-linejoin="round" stroke-miterlimit="10" points="1856,240 
			1856,880 1712,1024 992,1024 800,1216 464,1216 		"/>
		<polyline fill="none" stroke="#00FFFF" stroke-width="4" stroke-linejoin="round" stroke-miterlimit="10" points="1936,240 
			1936,288 1984,336 2048,336 		"/>
		<polyline fill="none" stroke="#00FFFF" stroke-width="4" stroke-linejoin="round" stroke-miterlimit="10" points="1952,240 
			1952,288 1984,320 2048,320 		"/>
		
			<line fill="none" stroke="#00FFFF" stroke-width="4" stroke-linejoin="round" stroke-miterlimit="10" x1="1968" y1="112" x2="1968" y2="64"/>
		
			<line fill="none" stroke="#00FFFF" stroke-width="4" stroke-linejoin="round" stroke-miterlimit="10" x1="1968" y1="128" x2="2032" y2="128"/>
		
			<line fill="none" stroke="#00FFFF" stroke-width="4" stroke-linejoin="round" stroke-miterlimit="10" x1="1968" y1="144" x2="2032" y2="144"/>
		
			<line fill="none" stroke="#00FFFF" stroke-width="4" stroke-linejoin="round" stroke-miterlimit="10" x1="1968" y1="160" x2="2032" y2="160"/>
		
			<line fill="none" stroke="#00FFFF" stroke-width="4" stroke-linejoin="round" stroke-miterlimit="10" x1="1968" y1="176" x2="2032" y2="176"/>
		
			<line fill="none" stroke="#00FFFF" stroke-width="4" stroke-linejoin="round" stroke-miterlimit="10" x1="1968" y1="192" x2="2032" y2="192"/>
		
			<line fill="none" stroke="#00FFFF" stroke-width="4" stroke-linejoin="round" stroke-miterlimit="10" x1="1968" y1="208" x2="2032" y2="208"/>
		
			<line fill="none" stroke="#00FFFF" stroke-width="4" stroke-linejoin="round" stroke-miterlimit="10" x1="1968" y1="224" x2="1968" y2="288"/>
		<polyline fill="none" stroke="#00FFFF" stroke-width="4" stroke-linejoin="round" stroke-miterlimit="10" points="2048,32.333 
			1968,32 1936,64 1936,96 		"/>
		<g>
			<path fill="#006860" d="M464,1060c0-2.2,1.273-5.272,2.829-6.828l10.343-10.344c1.556-1.556,4.628-2.828,6.829-2.828h104
				c2.2,0,4-1.8,4-4v-8c0-2.2,0-5.8,0-8v-40c0-2.2,1.8-4,4-4h312c2.2,0,4,1.8,4,4v56c0,2.2-1.273,5.272-2.829,6.828
				l-106.343,106.344c-1.556,1.556-4.628,2.828-6.829,2.828H484c-2.2,0-5.273-1.272-6.829-2.828l-10.343-10.344
				c-1.556-1.556-2.829-4.628-2.829-6.828V1060z"/>
		</g>
		
			<line fill="none" stroke="#00FFFF" stroke-width="4" stroke-linejoin="round" stroke-miterlimit="10" x1="1632" y1="1584" x2="1664" y2="1584"/>
		
			<line fill="none" stroke="#00FFFF" stroke-width="4" stroke-linejoin="round" stroke-miterlimit="10" x1="1632" y1="1568" x2="1664" y2="1568"/>
		
			<line fill="none" stroke="#00FFFF" stroke-width="4" stroke-linejoin="round" stroke-miterlimit="10" x1="1632" y1="1552" x2="1664" y2="1552"/>
		
			<line fill="none" stroke="#00FFFF" stroke-width="4" stroke-linejoin="round" stroke-miterlimit="10" x1="1632" y1="1536" x2="1664" y2="1536"/>
		<polyline fill="none" stroke="#00FFFF" stroke-width="4" stroke-linejoin="round" stroke-miterlimit="10" points="1184,2048 
			1184,1952 1520,1616 1520,1504 1616,1504 1616,1584 1536,1584 1536,1520 1600,1520 1600,1568 1552,1568 1552,1536 1584,1536 
			1584,1552 1568,1552 		"/>
		<polyline fill="none" stroke="#00FFFF" stroke-width="4" stroke-linejoin="round" stroke-miterlimit="10" points="1536,1600 
			1536,1616 1200,1952 1200.001,2048 		"/>
		<polyline fill="none" stroke="#00FFFF" stroke-width="4" stroke-linejoin="round" stroke-miterlimit="10" points="1552,1600 
			1552,1616 1216,1952 1216,2048 		"/>
		<polyline fill="none" stroke="#00FFFF" stroke-width="4" stroke-linejoin="round" stroke-miterlimit="10" points="1568,1600 
			1568,1616 1232,1952 1232,2048 		"/>
		<polyline fill="none" stroke="#00FFFF" stroke-width="4" stroke-linejoin="round" stroke-miterlimit="10" points="1584,1600 
			1584,1616 1248,1952 1248,2048 		"/>
		<polyline fill="none" stroke="#00FFFF" stroke-width="4" stroke-linejoin="round" stroke-miterlimit="10" points="1600,1600 
			1600,1616 1264,1952 1263.667,2048 		"/>
		<polyline fill="none" stroke="#00FFFF" stroke-width="4" stroke-linejoin="round" stroke-miterlimit="10" points="1616,1600 
			1616,1616 1280,1952 1280.667,2048 		"/>
		<polyline fill="none" stroke="#00FFFF" stroke-width="4" stroke-linejoin="round" stroke-miterlimit="10" points="1200,0 1200,96 
			1296,192 1824,192 		"/>
		<polyline fill="none" stroke="#00FFFF" stroke-width="4" stroke-linejoin="round" stroke-miterlimit="10" points="1216,0 1216,96 
			1296,176 1824,176 		"/>
		<polyline fill="none" stroke="#00FFFF" stroke-width="4" stroke-linejoin="round" stroke-miterlimit="10" points="1232,0 1232,96 
			1296,160 1824,160 		"/>
		<polyline fill="none" stroke="#00FFFF" stroke-width="4" stroke-linejoin="round" stroke-miterlimit="10" points="1248,0 1248,96 
			1296,144 1824,144 		"/>
		<polyline fill="none" stroke="#00FFFF" stroke-width="4" stroke-linejoin="round" stroke-miterlimit="10" points="1264,0 1264,96 
			1296,128 1824,128 		"/>
		
			<use xlink:href="#New_Symbol"  width="14" height="14" x="-7" y="-7" transform="matrix(1 0 0 -1 1536 1600)" overflow="visible"/>
		
			<use xlink:href="#New_Symbol"  width="14" height="14" x="-7" y="-7" transform="matrix(1 0 0 -1 1552 1600)" overflow="visible"/>
		
			<use xlink:href="#New_Symbol"  width="14" height="14" x="-7" y="-7" transform="matrix(1 0 0 -1 1568 1600)" overflow="visible"/>
		
			<use xlink:href="#New_Symbol"  width="14" height="14" x="-7" y="-7" transform="matrix(1 0 0 -1 1584 1600)" overflow="visible"/>
		
			<use xlink:href="#New_Symbol"  width="14" height="14" x="-7" y="-7" transform="matrix(1 0 0 -1 1600 1600)" overflow="visible"/>
		
			<use xlink:href="#New_Symbol"  width="14" height="14" x="-7" y="-7" transform="matrix(1 0 0 -1 1616 1600)" overflow="visible"/>
		<polyline fill="none" stroke="#00FFFF" stroke-width="4" stroke-linejoin="round" stroke-miterlimit="10" points="336,320 
			304,352 0,352 		"/>
		<polyline fill="none" stroke="#00FFFF" stroke-width="4" stroke-linejoin="round" stroke-miterlimit="10" points="352,336 
			320,368 0,368 		"/>
		<use xlink:href="#New_Symbol"  width="14" height="14" x="-7" y="-7" transform="matrix(1 0 0 -1 336 320)" overflow="visible"/>
		<use xlink:href="#New_Symbol"  width="14" height="14" x="-7" y="-7" transform="matrix(1 0 0 -1 352 336)" overflow="visible"/>
		<polyline fill="none" stroke="#00FFFF" stroke-width="4" stroke-linejoin="round" stroke-miterlimit="10" points="2048,352 
			1984,352 1936,304 		"/>
		<polyline fill="none" stroke="#00FFFF" stroke-width="4" stroke-linejoin="round" stroke-miterlimit="10" points="2048,368.333 
			1984,368 1936,320 		"/>
		<use xlink:href="#New_Symbol"  width="14" height="14" x="-7" y="-7" transform="matrix(1 0 0 -1 1936 304)" overflow="visible"/>
		<use xlink:href="#New_Symbol"  width="14" height="14" x="-7" y="-7" transform="matrix(1 0 0 -1 1936 320)" overflow="visible"/>
		<g>
			<path fill="#006860" d="M1202.828,146.829c-1.556-1.556-2.828-1.029-2.828,1.171v72c0,2.2,1.8,4,4,4h72
				c2.2,0,2.728-1.273,1.172-2.829L1202.828,146.829z"/>
		</g>
		<path fill="none" stroke="#00FFFF" stroke-width="4" stroke-linejoin="round" stroke-miterlimit="10" d="M1664,48"/>
		<path fill="none" stroke="#00FFFF" stroke-width="4" stroke-linejoin="round" stroke-miterlimit="10" d="M1664,16"/>
		<path fill="none" stroke="#00FFFF" stroke-width="4" stroke-linejoin="round" stroke-miterlimit="10" d="M1680,48"/>
		<path fill="none" stroke="#00FFFF" stroke-width="4" stroke-linejoin="round" stroke-miterlimit="10" d="M1680,16"/>
		<path fill="none" stroke="#00FFFF" stroke-width="4" stroke-linejoin="round" stroke-miterlimit="10" d="M1696,48"/>
		<path fill="none" stroke="#00FFFF" stroke-width="4" stroke-linejoin="round" stroke-miterlimit="10" d="M1696,16"/>
		<path fill="none" stroke="#00FFFF" stroke-width="4" stroke-linejoin="round" stroke-miterlimit="10" d="M1712,48"/>
		<path fill="none" stroke="#00FFFF" stroke-width="4" stroke-linejoin="round" stroke-miterlimit="10" d="M1712,16"/>
		<path fill="none" stroke="#00FFFF" stroke-width="4" stroke-linejoin="round" stroke-miterlimit="10" d="M1728,48"/>
		<path fill="none" stroke="#00FFFF" stroke-width="4" stroke-linejoin="round" stroke-miterlimit="10" d="M1728,16"/>
		<path fill="none" stroke="#00FFFF" stroke-width="4" stroke-linejoin="round" stroke-miterlimit="10" d="M1744,48"/>
		<path fill="none" stroke="#00FFFF" stroke-width="4" stroke-linejoin="round" stroke-miterlimit="10" d="M1744,16"/>
		<path fill="none" stroke="#00FFFF" stroke-width="4" stroke-linejoin="round" stroke-miterlimit="10" d="M1760,48"/>
		<path fill="none" stroke="#00FFFF" stroke-width="4" stroke-linejoin="round" stroke-miterlimit="10" d="M1760,16"/>
		<path fill="none" stroke="#00FFFF" stroke-width="4" stroke-linejoin="round" stroke-miterlimit="10" d="M1776,48"/>
		<path fill="none" stroke="#00FFFF" stroke-width="4" stroke-linejoin="round" stroke-miterlimit="10" d="M1776,16"/>
		
			<line fill="none" stroke="#00FFFF" stroke-width="4" stroke-linejoin="round" stroke-miterlimit="10" x1="1872" y1="16" x2="1872" y2="48"/>
		
			<line fill="none" stroke="#00FFFF" stroke-width="4" stroke-linejoin="round" stroke-miterlimit="10" x1="1856" y1="16" x2="1856" y2="48"/>
		
			<line fill="none" stroke="#00FFFF" stroke-width="4" stroke-linejoin="round" stroke-miterlimit="10" x1="1840" y1="16" x2="1840" y2="48"/>
		
			<line fill="none" stroke="#00FFFF" stroke-width="4" stroke-linejoin="round" stroke-miterlimit="10" x1="1824" y1="16" x2="1824" y2="48"/>
		
			<line fill="none" stroke="#00FFFF" stroke-width="4" stroke-linejoin="round" stroke-miterlimit="10" x1="1264" y1="560" x2="1216" y2="560"/>
		
			<line fill="none" stroke="#00FFFF" stroke-width="4" stroke-linejoin="round" stroke-miterlimit="10" x1="1264" y1="576" x2="1216" y2="576"/>
		
			<line fill="none" stroke="#00FFFF" stroke-width="4" stroke-linejoin="round" stroke-miterlimit="10" x1="1264" y1="592" x2="1216" y2="592"/>
		
			<line fill="none" stroke="#00FFFF" stroke-width="4" stroke-linejoin="round" stroke-miterlimit="10" x1="1264" y1="608" x2="1216" y2="608"/>
		
			<line fill="none" stroke="#00FFFF" stroke-width="4" stroke-linejoin="round" stroke-miterlimit="10" x1="1264" y1="624" x2="1216" y2="624"/>
		
			<line fill="none" stroke="#00FFFF" stroke-width="4" stroke-linejoin="round" stroke-miterlimit="10" x1="1216" y1="640" x2="1264" y2="640"/>
		
			<line fill="none" stroke="#00FFFF" stroke-width="4" stroke-linejoin="round" stroke-miterlimit="10" x1="1216" y1="656" x2="1264" y2="656"/>
		
			<line fill="none" stroke="#00FFFF" stroke-width="4" stroke-linejoin="round" stroke-miterlimit="10" x1="1216" y1="672" x2="1264" y2="672"/>
		
			<line fill="none" stroke="#00FFFF" stroke-width="4" stroke-linejoin="round" stroke-miterlimit="10" x1="1312" y1="560" x2="1344" y2="560"/>
		
			<line fill="none" stroke="#00FFFF" stroke-width="4" stroke-linejoin="round" stroke-miterlimit="10" x1="1312" y1="576" x2="1344" y2="576"/>
		
			<line fill="none" stroke="#00FFFF" stroke-width="4" stroke-linejoin="round" stroke-miterlimit="10" x1="1312" y1="592" x2="1344" y2="592"/>
		
			<line fill="none" stroke="#00FFFF" stroke-width="4" stroke-linejoin="round" stroke-miterlimit="10" x1="1312" y1="608" x2="1344" y2="608"/>
		
			<line fill="none" stroke="#00FFFF" stroke-width="4" stroke-linejoin="round" stroke-miterlimit="10" x1="1312" y1="624" x2="1344" y2="624"/>
		
			<line fill="none" stroke="#00FFFF" stroke-width="4" stroke-linejoin="round" stroke-miterlimit="10" x1="1312" y1="640" x2="1344" y2="640"/>
		
			<line fill="none" stroke="#00FFFF" stroke-width="4" stroke-linejoin="round" stroke-miterlimit="10" x1="1312" y1="656" x2="1344" y2="656"/>
		
			<line fill="none" stroke="#00FFFF" stroke-width="4" stroke-linejoin="round" stroke-miterlimit="10" x1="1312" y1="672" x2="1344" y2="672"/>
		<polyline fill="none" stroke="#00FFFF" stroke-width="4" stroke-linejoin="round" stroke-miterlimit="10" points="1376,272 
			1376,208 1440,208 1440,272 1504,272 1504,208 		"/>
		
			<line fill="none" stroke="#00FFFF" stroke-width="4" stroke-linejoin="round" stroke-miterlimit="10" x1="1392" y1="224" x2="1392" y2="256"/>
		
			<line fill="none" stroke="#00FFFF" stroke-width="4" stroke-linejoin="round" stroke-miterlimit="10" x1="1408" y1="224" x2="1408" y2="256"/>
		
			<line fill="none" stroke="#00FFFF" stroke-width="4" stroke-linejoin="round" stroke-miterlimit="10" x1="1424" y1="224" x2="1424" y2="256"/>
		
			<line fill="none" stroke="#00FFFF" stroke-width="4" stroke-linejoin="round" stroke-miterlimit="10" x1="1488" y1="224" x2="1488" y2="256"/>
		
			<line fill="none" stroke="#00FFFF" stroke-width="4" stroke-linejoin="round" stroke-miterlimit="10" x1="1472" y1="224" x2="1472" y2="256"/>
		
			<line fill="none" stroke="#00FFFF" stroke-width="4" stroke-linejoin="round" stroke-miterlimit="10" x1="1456" y1="224" x2="1456" y2="256"/>
		<use xlink:href="#New_Symbol"  width="14" height="14" x="-7" y="-7" transform="matrix(1 0 0 -1 1664 16)" overflow="visible"/>
		<use xlink:href="#New_Symbol"  width="14" height="14" x="-7" y="-7" transform="matrix(1 0 0 -1 1680 16)" overflow="visible"/>
		<use xlink:href="#New_Symbol"  width="14" height="14" x="-7" y="-7" transform="matrix(1 0 0 -1 1696 16)" overflow="visible"/>
		<use xlink:href="#New_Symbol"  width="14" height="14" x="-7" y="-7" transform="matrix(1 0 0 -1 1712 16)" overflow="visible"/>
		<use xlink:href="#New_Symbol"  width="14" height="14" x="-7" y="-7" transform="matrix(1 0 0 -1 1728 16)" overflow="visible"/>
		<use xlink:href="#New_Symbol"  width="14" height="14" x="-7" y="-7" transform="matrix(1 0 0 -1 1744 16)" overflow="visible"/>
		<use xlink:href="#New_Symbol"  width="14" height="14" x="-7" y="-7" transform="matrix(1 0 0 -1 1760 16)" overflow="visible"/>
		<use xlink:href="#New_Symbol"  width="14" height="14" x="-7" y="-7" transform="matrix(1 0 0 -1 1776 16)" overflow="visible"/>
		<use xlink:href="#New_Symbol"  width="14" height="14" x="-7" y="-7" transform="matrix(1 0 0 -1 1776 48)" overflow="visible"/>
		<use xlink:href="#New_Symbol"  width="14" height="14" x="-7" y="-7" transform="matrix(1 0 0 -1 1760 48)" overflow="visible"/>
		<use xlink:href="#New_Symbol"  width="14" height="14" x="-7" y="-7" transform="matrix(1 0 0 -1 1744 48)" overflow="visible"/>
		<use xlink:href="#New_Symbol"  width="14" height="14" x="-7" y="-7" transform="matrix(1 0 0 -1 1728 48)" overflow="visible"/>
		<use xlink:href="#New_Symbol"  width="14" height="14" x="-7" y="-7" transform="matrix(1 0 0 -1 1712 48)" overflow="visible"/>
		<use xlink:href="#New_Symbol"  width="14" height="14" x="-7" y="-7" transform="matrix(1 0 0 -1 1696 48)" overflow="visible"/>
		<use xlink:href="#New_Symbol"  width="14" height="14" x="-7" y="-7" transform="matrix(1 0 0 -1 1680 48)" overflow="visible"/>
		<use xlink:href="#New_Symbol"  width="14" height="14" x="-7" y="-7" transform="matrix(1 0 0 -1 1664 48)" overflow="visible"/>
		<use xlink:href="#New_Symbol"  width="14" height="14" x="-7" y="-7" transform="matrix(1 0 0 -1 1376 272)" overflow="visible"/>
		<use xlink:href="#New_Symbol"  width="14" height="14" x="-7" y="-7" transform="matrix(1 0 0 -1 1504 208)" overflow="visible"/>
		<polyline fill="none" stroke="#00FFFF" stroke-width="4" stroke-linejoin="round" stroke-miterlimit="10" points="368,672 
			368,560 352,560 352,688 384,688 384,544 336,544 336,704 400,704 400,528 320,528 320,720 416,720 416,512 304,512 304,1152 
			320,1168 384,1168 		"/>
	</g>
	<g id="Layer_4">
		<use xlink:href="#New_Symbol"  width="14" height="14" x="-7" y="-7" transform="matrix(1 0 0 -1 352 304)" overflow="visible"/>
		<use xlink:href="#New_Symbol"  width="14" height="14" x="-7" y="-7" transform="matrix(1 0 0 -1 576 976)" overflow="visible"/>
		<use xlink:href="#New_Symbol"  width="14" height="14" x="-7" y="-7" transform="matrix(1 0 0 -1 576 992)" overflow="visible"/>
		<use xlink:href="#New_Symbol"  width="14" height="14" x="-7" y="-7" transform="matrix(1 0 0 -1 576 1008)" overflow="visible"/>
		<use xlink:href="#New_Symbol"  width="14" height="14" x="-7" y="-7" transform="matrix(1 0 0 -1 576 1024)" overflow="visible"/>
		<use xlink:href="#New_Symbol"  width="14" height="14" x="-7" y="-7" transform="matrix(1 0 0 -1 16 16)" overflow="visible"/>
		<use xlink:href="#New_Symbol"  width="14" height="14" x="-7" y="-7" transform="matrix(1 0 0 -1 16 64)" overflow="visible"/>
		<use xlink:href="#New_Symbol"  width="14" height="14" x="-7" y="-7" transform="matrix(1 0 0 -1 928 1024)" overflow="visible"/>
		<use xlink:href="#New_Symbol"  width="14" height="14" x="-7" y="-7" transform="matrix(1 0 0 -1 976 1008)" overflow="visible"/>
		<use xlink:href="#New_Symbol"  width="14" height="14" x="-7" y="-7" transform="matrix(1 0 0 -1 352 224)" overflow="visible"/>
		<use xlink:href="#New_Symbol"  width="14" height="14" x="-7" y="-7" transform="matrix(1 0 0 -1 336 288)" overflow="visible"/>
		
			<use xlink:href="#New_Symbol"  width="14" height="14" x="-7" y="-7" transform="matrix(1 0 0 -1 1632 1536)" overflow="visible"/>
		
			<use xlink:href="#New_Symbol"  width="14" height="14" x="-7" y="-7" transform="matrix(1 0 0 -1 1632 1552)" overflow="visible"/>
		
			<use xlink:href="#New_Symbol"  width="14" height="14" x="-7" y="-7" transform="matrix(1 0 0 -1 1632 1568)" overflow="visible"/>
		
			<use xlink:href="#New_Symbol"  width="14" height="14" x="-7" y="-7" transform="matrix(1 0 0 -1 1632 1584)" overflow="visible"/>
		
			<use xlink:href="#New_Symbol"  width="14" height="14" x="-7" y="-7" transform="matrix(1 0 0 -1 1632 1520)" overflow="visible"/>
		<use xlink:href="#New_Symbol"  width="14" height="14" x="-7" y="-7" transform="matrix(1 0 0 -1 1200 128)" overflow="visible"/>
		<use xlink:href="#New_Symbol"  width="14" height="14" x="-7" y="-7" transform="matrix(1 0 0 -1 1200 112)" overflow="visible"/>
		<polyline fill="none" stroke="#00FFFF" stroke-width="4" stroke-linejoin="round" stroke-miterlimit="10" points="1632,656 
			1664,656 1664,640 1616,640 1616,672 1680,672 1680,624 1600,624 1600,688 1696,688 1696,608 1584,608 1584,704 1712,704 
			1712,592 		"/>
		<polyline fill="none" stroke="#00FFFF" stroke-width="4" stroke-linejoin="round" stroke-miterlimit="10" points="1520,1232 
			1504,1248 1504,1344 		"/>
		<polyline fill="none" stroke="#00FFFF" stroke-width="4" stroke-linejoin="round" stroke-miterlimit="10" points="1536,1248 
			1520,1264 1520,1344 		"/>
		<polyline fill="none" stroke="#00FFFF" stroke-width="4" stroke-linejoin="round" stroke-miterlimit="10" points="1552,1264 
			1536,1280 1536,1344 		"/>
		<polyline fill="none" stroke="#00FFFF" stroke-width="4" stroke-linejoin="round" stroke-miterlimit="10" points="1568,1280 
			1552,1296 1552,1344 		"/>
		<polyline fill="none" stroke="#00FFFF" stroke-width="4" stroke-linejoin="round" stroke-miterlimit="10" points="1536,1216 
			1552,1200 1552,1168 		"/>
		<polyline fill="none" stroke="#00FFFF" stroke-width="4" stroke-linejoin="round" stroke-miterlimit="10" points="1552,1232 
			1568,1216 1568,1168 		"/>
		<polyline fill="none" stroke="#00FFFF" stroke-width="4" stroke-linejoin="round" stroke-miterlimit="10" points="1568,1248 
			1584,1232 1584,1168 		"/>
		<polyline fill="none" stroke="#00FFFF" stroke-width="4" stroke-linejoin="round" stroke-miterlimit="10" points="1584,1264 
			1600,1248 1600,1168 		"/>
		
			<use xlink:href="#New_Symbol"  width="14" height="14" x="-7" y="-7" transform="matrix(1 0 0 -1 1520 1232)" overflow="visible"/>
		
			<use xlink:href="#New_Symbol"  width="14" height="14" x="-7" y="-7" transform="matrix(1 0 0 -1 1536 1248)" overflow="visible"/>
		
			<use xlink:href="#New_Symbol"  width="14" height="14" x="-7" y="-7" transform="matrix(1 0 0 -1 1552 1264)" overflow="visible"/>
		
			<use xlink:href="#New_Symbol"  width="14" height="14" x="-7" y="-7" transform="matrix(1 0 0 -1 1568 1280)" overflow="visible"/>
		
			<use xlink:href="#New_Symbol"  width="14" height="14" x="-7" y="-7" transform="matrix(1 0 0 -1 1536 1216)" overflow="visible"/>
		
			<use xlink:href="#New_Symbol"  width="14" height="14" x="-7" y="-7" transform="matrix(1 0 0 -1 1552 1232)" overflow="visible"/>
		
			<use xlink:href="#New_Symbol"  width="14" height="14" x="-7" y="-7" transform="matrix(1 0 0 -1 1568 1248)" overflow="visible"/>
		
			<use xlink:href="#New_Symbol"  width="14" height="14" x="-7" y="-7" transform="matrix(1 0 0 -1 1584 1264)" overflow="visible"/>
	</g>
</g>
</svg>
